<?xml version="1.0" encoding="utf-8"?>
<svg viewBox="0 0 1170 1601" style="isolation:isolate" xmlns="http://www.w3.org/2000/svg">
  <defs>
    <clipPath id="_clipPath_EiceXXOrJ6rnOsx5NH4w0OeupDkmYtC1">
      <rect width="1170" height="1601"/>
    </clipPath>
  </defs>
  <g clip-path="url(#_clipPath_EiceXXOrJ6rnOsx5NH4w0OeupDkmYtC1)" transform="matrix(1.7766029834747314, 0, 0, 1.881443977355957, -467.9376831054685, -866.8068237304688)" style="">
    <clipPath id="_clipPath_H8EI6ecsFmQvCpgCAC9FdRGRFRwRPDdj">
      <rect x="271.282" y="384.028" width="691.518" height="947.816" transform="matrix(1,0,0,1,0,0)" fill="rgb(255,255,255)"/>
    </clipPath>
    <g clip-path="url(#_clipPath_H8EI6ecsFmQvCpgCAC9FdRGRFRwRPDdj)">
      <g>
        <g>
          <path d="M 674.018 490.709 C 673.368 491.478 671.417 494.024 669.644 496.451 C 667.812 498.997 663.143 503.792 658.355 508.114 C 646.298 519.007 644.052 522.382 644.111 529.486 C 644.17 542.036 657.882 549.318 668.167 542.332 C 669.94 541.148 670.531 540.971 670.885 541.622 C 671.181 542.036 671.417 542.569 671.417 542.806 C 671.417 543.339 668.048 546.062 664.679 548.253 C 663.084 549.259 661.665 550.384 661.547 550.739 C 661.251 551.686 663.97 552.633 668.403 553.107 L 672.186 553.462 L 671.772 557.429 C 671.595 559.56 671.181 562.816 670.885 564.592 C 670.59 566.368 670.058 569.683 669.644 571.992 C 669.29 574.242 668.758 577.735 668.403 579.689 C 668.108 581.642 667.576 584.721 667.28 586.497 C 663.734 608.105 661.37 619.117 657.291 633.562 C 655.991 638.002 652.8 645.935 649.903 651.974 C 644.525 662.926 639.738 668.136 635.896 667.188 C 632.231 666.241 622.952 658.367 617.219 651.322 C 615.919 649.665 609.122 640.725 602.088 631.371 C 588.317 612.96 588.021 612.545 580.101 603.192 C 573.6 595.377 566.567 588.332 558.824 581.761 C 548.422 572.88 534.709 562.935 530.336 560.981 C 529.272 560.507 528.385 559.974 528.385 559.738 C 528.385 559.501 530.218 557.014 532.464 554.232 C 534.709 551.39 537.546 547.128 538.729 544.7 C 544.048 533.985 541.152 522.204 532.286 518.06 C 526.021 515.1 518.338 517.231 513.727 523.092 C 512.368 524.75 511.127 526.644 510.95 527.295 C 510.418 529.071 509.945 528.775 508.349 525.756 C 505.276 520.013 498.715 516.225 492.864 516.757 C 486.835 517.349 481.516 521.967 479.861 528.065 C 478.738 532.209 479.388 539.491 481.279 543.516 C 484.944 551.509 491.682 559.678 502.911 570.039 C 506.339 573.236 509.59 575.84 510.063 575.84 C 510.536 575.84 513.609 573.472 516.86 570.512 C 520.111 567.611 522.948 565.184 523.184 565.184 C 523.775 565.184 541.27 583.477 544.875 587.977 C 549.545 593.719 550.549 595.199 554.628 602.718 C 559.947 612.249 565.916 624.741 573.068 640.844 C 579.274 654.934 582.229 660.143 587.844 667.425 C 596.828 678.91 605.575 686.192 618.519 693 C 640.742 704.722 676.737 708.156 708.357 701.584 C 712.258 700.815 713.618 700.46 718.701 699.098 C 723.429 697.736 729.635 695.368 734.481 692.882 C 739.387 690.395 740.51 689.803 746.184 686.547 C 753.809 682.107 762.497 673.878 767.757 666.063 C 770.535 662.038 777.332 649.309 778.987 645.106 C 779.401 643.981 780.524 641.376 781.469 639.304 C 782.356 637.292 783.124 635.456 783.124 635.338 C 783.124 635.22 783.952 633.325 784.897 631.194 C 785.902 629.063 786.67 627.168 786.67 627.05 C 786.67 626.102 795.891 606.744 799.792 599.521 C 804.874 589.99 816.754 573.058 823.788 565.243 L 826.625 562.047 L 834.249 572.052 C 842.169 582.471 842.701 583.063 843.588 582.53 C 843.883 582.353 849.203 575.426 855.349 567.138 C 864.274 555.179 866.52 551.864 866.106 551.035 C 864.983 548.726 843.765 520.783 843.174 520.783 C 842.76 520.783 840.633 523.21 838.387 526.17 C 836.081 529.19 832.713 533.511 830.88 535.82 C 826.448 541.385 819.71 550.502 819.355 551.449 C 819.178 551.864 819.769 553.166 820.714 554.35 C 822.606 556.837 823.138 556.186 815.572 560.981 C 813.09 562.579 810.548 564.296 809.957 564.77 C 809.366 565.303 806.057 567.907 802.629 570.572 C 796.245 575.604 784.247 587.207 778.041 594.43 C 774.318 598.751 764.684 611.125 761.256 615.861 C 760.133 617.459 757.65 621.011 755.7 623.794 C 740.924 645.106 732.649 655.822 725.202 663.34 C 722.838 665.708 720.178 668.017 719.292 668.491 C 717.755 669.26 717.459 669.26 715.686 668.017 C 705.934 661.505 690.094 622.906 685.602 594.785 C 685.307 593.009 684.775 589.93 684.42 587.977 C 684.066 586.023 683.534 582.53 683.238 580.281 C 681.583 567.907 680.874 562.047 680.519 558.021 L 680.165 553.521 L 684.716 552.929 C 691.808 551.923 691.926 551.213 685.543 547.128 C 681.17 544.286 679.456 542.273 680.047 540.675 C 680.401 539.787 680.638 539.846 681.997 541.148 C 685.602 544.641 692.458 546.003 697.246 544.286 C 706.111 540.971 710.131 531.203 706.171 522.441 C 704.279 518.356 701.62 515.396 692.636 507.404 C 688.262 503.555 684.125 499.115 681.347 495.504 C 678.924 492.307 676.559 489.643 676.087 489.525 C 675.614 489.466 674.668 489.998 674.018 490.709 Z" fill="rgb(0,0,0)"/>
          <path d="M 843.992 558.483 C 845.233 560.377 850.807 547.945 851.457 548.656 C 852.521 549.899 855.286 543.911 854.281 543.734 C 853.631 543.675 846.317 541.377 846.435 540.962 C 846.494 540.43 843.977 537.433 843.445 538.085 C 842.735 538.973 842.883 528.699 842.233 529.883 C 841.76 530.712 840.251 542.514 839.069 541.863 C 838.005 541.212 840.692 535.583 840.396 535.583 C 840.041 535.583 838.616 536.45 838.794 536.154 C 838.971 535.798 837.529 541.35 836.82 541.35 C 834.674 540.649 836.642 537.907 836.82 538.262 C 836.997 538.618 840.091 531.654 839.618 531.477 C 839.086 531.299 836.665 531.738 836.902 531.324 C 835.064 532.144 831.114 537.876 832.355 537.345 C 830.582 538.885 832.876 560.093 837.191 554.35 C 841.092 549.141 840.505 553.273 843.992 558.483 Z" fill="rgb(0,0,0)"/>
        </g>
        <path d=" M 708.003 738.23 C 698.901 742.67 694.054 744.683 685.661 747.525 C 674.668 751.195 671.713 751.906 656.109 754.629 C 654.336 754.984 652.031 755.221 650.967 755.221 L 649.076 755.221 L 648.721 765.996 C 648.544 771.975 648.071 814.245 647.776 860.008 C 646.416 1048.919 644.17 1097.82 635.246 1135.886 C 632.172 1149.029 627.444 1160.751 619.465 1175.255 C 614.796 1183.721 604.452 1195.798 596.119 1202.429 C 583.175 1212.789 564.38 1221.255 547.476 1224.333 C 536.778 1226.346 531.281 1226.701 513.314 1226.701 C 498.656 1226.701 493.691 1226.524 488.49 1225.695 C 468.276 1222.439 452.259 1216.696 436.537 1207.106 C 416.678 1195.029 396.228 1168.625 388.427 1145.063 C 386.772 1140.149 384.112 1130.499 383.403 1127.006 C 383.285 1126.177 382.457 1122.211 381.63 1118.126 C 377.729 1098.53 375.897 1082.487 374.655 1057.444 C 374.301 1049.63 373.828 1043.118 373.592 1042.94 C 373.414 1042.762 358.343 1042.703 340.198 1042.822 L 307.159 1043.058 L 307.513 1060.286 C 307.69 1069.818 308.163 1080.237 308.518 1083.493 C 308.873 1086.749 309.404 1091.959 309.759 1095.037 C 311.828 1115.403 315.729 1137.189 319.925 1152.463 C 321.875 1159.449 324.535 1167.855 325.658 1170.519 C 325.895 1171.17 327.018 1173.953 328.081 1176.735 C 337.774 1201.896 353.91 1225.873 372.232 1242.212 C 385.708 1254.289 403.794 1265.538 420.225 1272.05 C 435.355 1278.088 452.968 1282.588 474.01 1285.784 C 480.747 1286.791 528.149 1286.791 538.138 1285.784 C 548.717 1284.719 555.573 1283.89 558.528 1283.298 C 573.659 1280.516 592.691 1275.128 600.906 1271.399 C 602.325 1270.807 603.684 1270.274 604.039 1270.274 C 604.393 1270.274 605.102 1270.037 605.694 1269.741 C 606.225 1269.445 609.949 1267.55 613.968 1265.597 C 639.442 1252.928 664.561 1230.076 679.692 1205.744 C 682.943 1200.534 689.799 1187.332 691.749 1182.656 C 692.34 1181.175 693.168 1179.163 693.641 1178.156 C 695.355 1174.308 699.314 1162.527 701.501 1154.831 C 705.107 1142.221 705.816 1139.024 708.003 1125.348 C 711.135 1106.463 712.908 1077.987 713.972 1031.988 C 715.332 973.082 716.868 757.115 716.041 743.203 C 715.568 734.264 715.805 734.441 708.003 738.23 Z " fill="rgb(0,0,0)"/>
        <path d=" M 342.03 978.174 C 337.656 979.535 333.164 984.212 331.864 988.711 C 330.623 993.033 331.332 997.177 333.874 1000.729 L 335.528 1002.979 L 331.273 1002.801 C 324.417 1002.446 319.098 1005.466 316.438 1011.267 C 313.483 1017.602 315.197 1025.831 320.339 1029.916 C 326.545 1034.829 334.701 1034.711 340.434 1029.501 C 343.508 1026.719 344.335 1026.778 343.153 1029.62 C 342.325 1031.633 339.902 1033.764 335.469 1036.665 C 329.382 1040.513 331.509 1041.401 346.64 1041.401 C 357.929 1041.401 361.534 1040.868 361.002 1039.21 C 360.825 1038.855 359.111 1037.434 357.102 1036.073 C 352.196 1032.876 350.6 1031.277 350.186 1029.205 C 349.95 1028.258 349.891 1027.37 350.009 1027.192 C 350.186 1027.074 351.487 1028.08 352.905 1029.501 C 360.175 1036.428 372.291 1034.119 376.783 1024.884 C 380.684 1016.951 377.611 1008.011 369.691 1004.104 C 366.913 1002.742 365.908 1002.565 362.303 1002.801 C 360.057 1002.92 358.165 1002.92 358.165 1002.801 C 358.165 1002.683 358.697 1001.795 359.347 1000.907 C 360.884 998.776 362.303 994.75 362.303 992.56 C 362.303 986.817 356.806 979.89 350.896 978.114 C 347.231 977.049 345.694 977.049 342.03 978.174 Z " fill="rgb(0,0,0)"/>
      </g>
    </g>
  </g>
</svg>